<svg width="432" height="400" viewBox="0 0 432 400" fill="none" xmlns="http://www.w3.org/2000/svg">
<rect x="20" y="17" width="393" height="371" fill="#224F92"/>
<path d="M0.172267 0.172267H431.813V399.828H0.172267V0.172267Z" stroke="white" stroke-width="0.344535"/>
<path d="M80.997 300L350.988 300C365.899 300 377.987 288.807 377.987 275V100C377.987 86.1929 365.899 75 350.988 75L80.997 75C66.0858 75 53.998 86.1929 53.998 100V275C53.998 288.807 66.0858 300 80.997 300Z" stroke="white" stroke-width="11.0251" stroke-linecap="round" stroke-linejoin="round"/>
<path d="M269.991 350H161.994" stroke="white" stroke-width="11.0251" stroke-linecap="round" stroke-linejoin="round"/>
<path d="M54.9575 266.664H377.903" stroke="white" stroke-width="11.0251" stroke-linecap="round" stroke-linejoin="round"/>
<path d="M215.993 300V350" stroke="white" stroke-width="11.0251" stroke-linecap="round" stroke-linejoin="round"/>
<path d="M199.108 160.628C200.135 160.429 200.781 159.437 200.495 158.425C197.922 149.322 192.028 141.278 183.765 135.654C175.45 129.994 165.277 127.154 154.974 127.582C153.937 127.625 153.189 128.516 153.286 129.542L156.801 166.638C156.909 167.776 158.002 168.593 159.126 168.375L199.108 160.628Z" fill="white" fill-opacity="0.03" stroke="white" stroke-width="11.0251"/>
<path d="M189.575 178.493C190.706 178.344 191.771 179.137 191.89 180.27C192.749 188.397 191.179 196.601 187.326 203.989C183.15 211.999 176.48 218.692 168.16 223.222C159.84 227.752 150.244 229.915 140.584 229.438C130.925 228.961 121.637 225.866 113.894 220.543C106.151 215.221 100.302 207.91 97.085 199.535C93.8683 191.161 93.4292 182.099 95.823 173.495C98.2168 164.891 103.336 157.133 110.533 151.2C117.217 145.69 125.414 141.985 134.217 140.474C135.34 140.281 136.401 141.078 136.577 142.204L142.891 182.566C143.067 183.692 144.127 184.485 145.258 184.336L189.575 178.493Z" fill="white" fill-opacity="0.03" stroke="white" stroke-width="11.0251"/>
<path d="M255.192 231.66V155.68L240.143 164.314L228.856 170.386V231.66H255.192Z" stroke="white" stroke-width="11.0251" stroke-linecap="round" stroke-linejoin="round"/>
<path d="M300.338 231.66V138.412L285.289 147.046L274.002 153.953V231.66H300.338Z" stroke="white" stroke-width="11.0251" stroke-linecap="round" stroke-linejoin="round"/>
<path d="M341.723 231.66V121.143L326.674 131.504L315.387 138.411V231.66H341.723Z" stroke="white" stroke-width="11.0251" stroke-linecap="round" stroke-linejoin="round"/>
</svg>
