<svg width="432" height="405" viewBox="0 0 432 405" fill="none" xmlns="http://www.w3.org/2000/svg">
<circle cx="216.5" cy="202.5" r="198.606" fill="#224F92" stroke="#224F92" stroke-width="7.78846"/>
<path d="M0.172267 5.17227H431.813V404.828H0.172267V5.17227Z" stroke="white" stroke-width="0.344535"/>
<path d="M80.997 305L350.988 305C365.899 305 377.987 293.807 377.987 280V105C377.987 91.1929 365.899 80 350.988 80L80.997 80C66.0858 80 53.998 91.1929 53.998 105V280C53.998 293.807 66.0858 305 80.997 305Z" stroke="white" stroke-width="11.0251" stroke-linecap="round" stroke-linejoin="round"/>
<path d="M269.991 355H161.994" stroke="white" stroke-width="11.0251" stroke-linecap="round" stroke-linejoin="round"/>
<path d="M54.9575 271.664H377.903" stroke="white" stroke-width="11.0251" stroke-linecap="round" stroke-linejoin="round"/>
<path d="M215.993 305V355" stroke="white" stroke-width="11.0251" stroke-linecap="round" stroke-linejoin="round"/>
<path d="M199.108 165.628C200.135 165.429 200.781 164.437 200.495 163.425C197.922 154.322 192.028 146.278 183.765 140.654C175.45 134.994 165.277 132.154 154.974 132.582C153.937 132.625 153.189 133.516 153.286 134.542L156.801 171.638C156.909 172.776 158.002 173.593 159.126 173.375L199.108 165.628Z" fill="white" fill-opacity="0.03" stroke="white" stroke-width="11.0251"/>
<path d="M189.575 183.493C190.706 183.344 191.771 184.137 191.89 185.27C192.749 193.397 191.179 201.601 187.326 208.989C183.15 216.999 176.48 223.692 168.16 228.222C159.84 232.752 150.244 234.915 140.584 234.438C130.925 233.961 121.637 230.866 113.894 225.543C106.151 220.221 100.302 212.91 97.085 204.535C93.8683 196.161 93.4292 187.099 95.823 178.495C98.2168 169.891 103.336 162.133 110.533 156.2C117.217 150.69 125.414 146.985 134.217 145.474C135.34 145.281 136.401 146.078 136.577 147.204L142.891 187.566C143.067 188.692 144.127 189.485 145.258 189.336L189.575 183.493Z" fill="white" fill-opacity="0.03" stroke="white" stroke-width="11.0251"/>
<path d="M255.192 236.66V160.68L240.143 169.314L228.856 175.386V236.66H255.192Z" stroke="white" stroke-width="11.0251" stroke-linecap="round" stroke-linejoin="round"/>
<path d="M300.338 236.66V143.412L285.289 152.046L274.002 158.953V236.66H300.338Z" stroke="white" stroke-width="11.0251" stroke-linecap="round" stroke-linejoin="round"/>
<path d="M341.723 236.66V126.143L326.674 136.504L315.387 143.411V236.66H341.723Z" stroke="white" stroke-width="11.0251" stroke-linecap="round" stroke-linejoin="round"/>
</svg>
