<svg width="587" height="527" viewBox="0 0 587 527" fill="none" xmlns="http://www.w3.org/2000/svg">
<path d="M69.564 438.495L34.884 341.187V457.875H18.36V310.995H41.004L77.724 416.259L111.588 310.995H134.028V457.875H116.892V341.187L84.864 438.495H69.564ZM236.042 389.943H188.102V444.003H242.162V457.875H170.762V310.995H242.162V324.867H188.102V376.479H236.042V389.943ZM346.814 457.875L336.002 418.503H284.594L273.578 457.875H256.442L300.302 310.995H321.518L365.174 457.875H346.814ZM288.47 405.243H332.33L310.706 326.907L288.47 405.243ZM423.104 321.399C415.488 321.399 409.232 323.235 404.336 326.907C399.44 330.443 396.992 336.087 396.992 343.839C396.992 347.375 397.468 350.503 398.42 353.223C399.372 355.943 400.936 358.391 403.112 360.567C405.424 362.743 408.416 364.851 412.088 366.891C415.76 368.795 420.316 370.767 425.756 372.807C431.06 374.847 436.092 377.091 440.852 379.539C445.612 381.987 449.76 384.979 453.296 388.515C456.968 392.051 459.824 396.335 461.864 401.367C464.04 406.399 465.128 412.519 465.128 419.727C465.128 425.303 463.972 430.607 461.66 435.639C459.484 440.671 456.356 445.091 452.276 448.899C448.332 452.571 443.572 455.495 437.996 457.671C432.42 459.847 426.3 460.935 419.636 460.935C412.836 460.935 406.852 460.051 401.684 458.283C396.652 456.651 392.3 454.475 388.628 451.755C384.956 448.899 381.896 445.703 379.448 442.167C377.136 438.631 375.3 434.959 373.94 431.151L388.628 425.643C389.58 428.363 390.804 431.015 392.3 433.599C393.932 436.183 395.972 438.495 398.42 440.535C400.868 442.439 403.792 444.003 407.192 445.227C410.728 446.451 414.944 447.063 419.84 447.063C423.104 447.063 426.368 446.655 429.632 445.839C432.896 444.887 435.82 443.391 438.404 441.351C441.124 439.311 443.3 436.591 444.932 433.191C446.564 429.791 447.38 425.643 447.38 420.747C447.38 415.579 446.7 411.295 445.34 407.895C444.116 404.495 442.076 401.503 439.22 398.919C436.5 396.335 432.896 394.023 428.408 391.983C423.92 389.943 418.548 387.631 412.292 385.047C401.276 380.559 393.116 375.119 387.812 368.727C382.644 362.335 380.06 354.447 380.06 345.063C380.06 339.895 381.012 335.067 382.916 330.579C384.82 325.955 387.608 322.011 391.28 318.747C394.952 315.347 399.372 312.695 404.54 310.791C409.844 308.887 415.896 307.935 422.696 307.935C434.256 307.935 443.3 310.315 449.828 315.075C456.356 319.699 461.388 326.023 464.924 334.047L449.828 339.351C447.516 333.639 444.32 329.219 440.24 326.091C436.16 322.963 430.448 321.399 423.104 321.399ZM574.158 310.995L532.95 399.123V457.875H515.814V399.123L473.79 310.995H492.762L524.79 381.171L557.226 310.995H574.158Z" fill="#224F92"/>
<path d="M21.335 488.65L12.75 507.01V519.25H9.18V507.01L0.425 488.65H4.3775L11.05 503.27L17.8075 488.65H21.335ZM23.0214 503.95C23.0214 500.975 23.3331 498.482 23.9564 496.47C24.5797 494.43 25.4014 492.787 26.4214 491.54C27.4414 490.293 28.6031 489.401 29.9064 488.862C31.2381 488.296 32.6122 488.012 34.0289 488.012C35.4456 488.012 36.8056 488.296 38.1089 488.862C39.4406 489.401 40.6164 490.293 41.6364 491.54C42.6564 492.787 43.4781 494.43 44.1014 496.47C44.7247 498.482 45.0364 500.975 45.0364 503.95C45.0364 506.925 44.7247 509.432 44.1014 511.472C43.4781 513.484 42.6564 515.113 41.6364 516.36C40.6164 517.607 39.4406 518.513 38.1089 519.08C36.7772 519.618 35.4172 519.888 34.0289 519.888C32.6122 519.888 31.2381 519.618 29.9064 519.08C28.6031 518.513 27.4414 517.607 26.4214 516.36C25.4014 515.113 24.5797 513.484 23.9564 511.472C23.3331 509.432 23.0214 506.925 23.0214 503.95ZM26.7189 503.95C26.7189 508.257 27.3281 511.529 28.5464 513.767C29.7647 516.006 31.5922 517.125 34.0289 517.125C36.4656 517.125 38.2931 516.006 39.5114 513.767C40.7297 511.529 41.3389 508.257 41.3389 503.95C41.3389 499.643 40.7297 496.371 39.5114 494.132C38.2931 491.894 36.4656 490.775 34.0289 490.775C31.5922 490.775 29.7647 491.894 28.5464 494.132C27.3281 496.371 26.7189 499.643 26.7189 503.95ZM55.245 488.65V510.325C55.245 512.45 55.6842 514.093 56.5625 515.255C57.4409 516.417 58.9142 516.997 60.9825 516.997C63.0509 516.997 64.5384 516.417 65.445 515.255C66.38 514.093 66.8475 512.45 66.8475 510.325V488.65H70.29V510.367C70.29 513.484 69.4825 515.85 67.8675 517.465C66.2809 519.08 63.9859 519.888 60.9825 519.888C57.9792 519.888 55.67 519.08 54.055 517.465C52.44 515.85 51.6325 513.484 51.6325 510.367V488.65H55.245ZM92.661 519.25L85.8185 507.265H81.356V519.25H77.7435V488.65H84.1185C87.4335 488.65 90.026 489.415 91.896 490.945C93.766 492.447 94.701 494.827 94.701 498.085C94.701 499.247 94.5593 500.281 94.276 501.187C93.9926 502.066 93.6101 502.845 93.1285 503.525C92.6468 504.205 92.0801 504.786 91.4285 505.267C90.7768 505.749 90.0826 506.146 89.346 506.457L96.9535 519.25H92.661ZM81.356 491.412V504.502H84.2035C86.4135 504.502 88.0993 503.978 89.261 502.93C90.4226 501.853 91.0035 500.238 91.0035 498.085C91.0035 495.932 90.4793 494.288 89.431 493.155C88.3826 491.993 86.5976 491.412 84.076 491.412H81.356ZM127.742 505.097H117.755V516.36H129.017V519.25H114.142V488.65H129.017V491.54H117.755V502.292H127.742V505.097ZM150.82 519.25L148.567 511.047H137.857L135.562 519.25H131.992L141.13 488.65H145.55L154.645 519.25H150.82ZM138.665 508.285H147.802L143.297 491.965L138.665 508.285ZM166.714 490.817C165.127 490.817 163.824 491.2 162.804 491.965C161.784 492.702 161.274 493.877 161.274 495.492C161.274 496.229 161.373 496.881 161.571 497.447C161.769 498.014 162.095 498.524 162.549 498.977C163.03 499.431 163.654 499.87 164.419 500.295C165.184 500.692 166.133 501.102 167.266 501.527C168.371 501.952 169.419 502.42 170.411 502.93C171.403 503.44 172.267 504.063 173.004 504.8C173.769 505.537 174.364 506.429 174.789 507.477C175.242 508.526 175.469 509.801 175.469 511.302C175.469 512.464 175.228 513.569 174.746 514.617C174.293 515.666 173.641 516.587 172.791 517.38C171.969 518.145 170.978 518.754 169.816 519.207C168.654 519.661 167.379 519.888 165.991 519.888C164.574 519.888 163.328 519.703 162.251 519.335C161.203 518.995 160.296 518.542 159.531 517.975C158.766 517.38 158.129 516.714 157.619 515.977C157.137 515.241 156.754 514.476 156.471 513.682L159.531 512.535C159.729 513.102 159.984 513.654 160.296 514.192C160.636 514.731 161.061 515.212 161.571 515.637C162.081 516.034 162.69 516.36 163.399 516.615C164.135 516.87 165.014 516.997 166.034 516.997C166.714 516.997 167.394 516.912 168.074 516.742C168.754 516.544 169.363 516.232 169.901 515.807C170.468 515.382 170.921 514.816 171.261 514.107C171.601 513.399 171.771 512.535 171.771 511.515C171.771 510.438 171.629 509.546 171.346 508.837C171.091 508.129 170.666 507.506 170.071 506.967C169.504 506.429 168.754 505.947 167.819 505.522C166.884 505.097 165.764 504.616 164.461 504.077C162.166 503.142 160.466 502.009 159.361 500.677C158.284 499.346 157.746 497.702 157.746 495.747C157.746 494.671 157.944 493.665 158.341 492.73C158.738 491.767 159.319 490.945 160.084 490.265C160.849 489.557 161.769 489.004 162.846 488.607C163.951 488.211 165.212 488.012 166.629 488.012C169.037 488.012 170.921 488.508 172.281 489.5C173.641 490.463 174.689 491.781 175.426 493.452L172.281 494.557C171.799 493.367 171.134 492.447 170.284 491.795C169.434 491.143 168.244 490.817 166.714 490.817ZM198.183 488.65L189.598 507.01V519.25H186.028V507.01L177.273 488.65H181.226L187.898 503.27L194.656 488.65H198.183ZM225.83 515.212L218.605 494.94V519.25H215.163V488.65H219.88L227.53 510.58L234.585 488.65H239.26V519.25H235.69V494.94L229.018 515.212H225.83ZM260.513 505.097H250.526V516.36H261.788V519.25H246.913V488.65H261.788V491.54H250.526V502.292H260.513V505.097ZM283.676 491.795H276.196V519.25H272.583V491.795H265.188V488.65H283.676V491.795ZM303.252 519.25L296.409 507.265H291.947V519.25H288.334V488.65H294.709C298.024 488.65 300.617 489.415 302.487 490.945C304.357 492.447 305.292 494.827 305.292 498.085C305.292 499.247 305.15 500.281 304.867 501.187C304.583 502.066 304.201 502.845 303.719 503.525C303.238 504.205 302.671 504.786 302.019 505.267C301.368 505.749 300.673 506.146 299.937 506.457L307.544 519.25H303.252ZM291.947 491.412V504.502H294.794C297.004 504.502 298.69 503.978 299.852 502.93C301.013 501.853 301.594 500.238 301.594 498.085C301.594 495.932 301.07 494.288 300.022 493.155C298.973 491.993 297.188 491.412 294.667 491.412H291.947ZM315.604 488.65V519.25H311.992V488.65H315.604ZM341.982 514.192C341.188 515.892 340.097 517.267 338.709 518.315C337.321 519.363 335.493 519.888 333.227 519.888C332.093 519.888 330.889 519.675 329.614 519.25C328.367 518.797 327.206 517.975 326.129 516.785C325.052 515.595 324.16 513.966 323.452 511.897C322.743 509.829 322.389 507.18 322.389 503.95C322.389 500.777 322.729 498.156 323.409 496.087C324.089 494.019 324.953 492.39 326.002 491.2C327.078 490.01 328.254 489.188 329.529 488.735C330.804 488.253 332.051 488.012 333.269 488.012C334.374 488.012 335.366 488.154 336.244 488.437C337.151 488.721 337.944 489.103 338.624 489.585C339.304 490.038 339.885 490.577 340.367 491.2C340.877 491.823 341.287 492.475 341.599 493.155L338.412 494.387C337.958 493.226 337.321 492.347 336.499 491.752C335.706 491.157 334.629 490.86 333.269 490.86C332.306 490.86 331.385 491.072 330.507 491.497C329.657 491.894 328.906 492.602 328.254 493.622C327.602 494.614 327.078 495.946 326.682 497.617C326.313 499.289 326.129 501.4 326.129 503.95C326.129 506.472 326.327 508.568 326.724 510.24C327.121 511.912 327.645 513.243 328.297 514.235C328.977 515.227 329.742 515.935 330.592 516.36C331.47 516.785 332.377 516.997 333.312 516.997C334.87 516.997 336.06 516.615 336.882 515.85C337.703 515.057 338.369 514.065 338.879 512.875L341.982 514.192ZM356.22 490.817C354.634 490.817 353.33 491.2 352.31 491.965C351.29 492.702 350.78 493.877 350.78 495.492C350.78 496.229 350.88 496.881 351.078 497.447C351.276 498.014 351.602 498.524 352.055 498.977C352.537 499.431 353.16 499.87 353.925 500.295C354.69 500.692 355.64 501.102 356.773 501.527C357.878 501.952 358.926 502.42 359.918 502.93C360.91 503.44 361.774 504.063 362.51 504.8C363.275 505.537 363.87 506.429 364.295 507.477C364.749 508.526 364.975 509.801 364.975 511.302C364.975 512.464 364.735 513.569 364.253 514.617C363.8 515.666 363.148 516.587 362.298 517.38C361.476 518.145 360.485 518.754 359.323 519.207C358.161 519.661 356.886 519.888 355.498 519.888C354.081 519.888 352.835 519.703 351.758 519.335C350.71 518.995 349.803 518.542 349.038 517.975C348.273 517.38 347.635 516.714 347.125 515.977C346.644 515.241 346.261 514.476 345.978 513.682L349.038 512.535C349.236 513.102 349.491 513.654 349.803 514.192C350.143 514.731 350.568 515.212 351.078 515.637C351.588 516.034 352.197 516.36 352.905 516.615C353.642 516.87 354.52 516.997 355.54 516.997C356.22 516.997 356.9 516.912 357.58 516.742C358.26 516.544 358.87 516.232 359.408 515.807C359.975 515.382 360.428 514.816 360.768 514.107C361.108 513.399 361.278 512.535 361.278 511.515C361.278 510.438 361.136 509.546 360.853 508.837C360.598 508.129 360.173 507.506 359.578 506.967C359.011 506.429 358.26 505.947 357.325 505.522C356.39 505.097 355.271 504.616 353.968 504.077C351.673 503.142 349.973 502.009 348.868 500.677C347.791 499.346 347.253 497.702 347.253 495.747C347.253 494.671 347.451 493.665 347.848 492.73C348.245 491.767 348.825 490.945 349.59 490.265C350.355 489.557 351.276 489.004 352.353 488.607C353.458 488.211 354.719 488.012 356.135 488.012C358.544 488.012 360.428 488.508 361.788 489.5C363.148 490.463 364.196 491.781 364.933 493.452L361.788 494.557C361.306 493.367 360.64 492.447 359.79 491.795C358.94 491.143 357.75 490.817 356.22 490.817ZM399.428 519.25L397.176 511.047H386.466L384.171 519.25H380.601L389.738 488.65H394.158L403.253 519.25H399.428ZM387.273 508.285H396.411L391.906 491.965L387.273 508.285ZM415.322 490.817C413.735 490.817 412.432 491.2 411.412 491.965C410.392 492.702 409.882 493.877 409.882 495.492C409.882 496.229 409.981 496.881 410.179 497.447C410.378 498.014 410.704 498.524 411.157 498.977C411.639 499.431 412.262 499.87 413.027 500.295C413.792 500.692 414.741 501.102 415.874 501.527C416.979 501.952 418.028 502.42 419.019 502.93C420.011 503.44 420.875 504.063 421.612 504.8C422.377 505.537 422.972 506.429 423.397 507.477C423.85 508.526 424.077 509.801 424.077 511.302C424.077 512.464 423.836 513.569 423.354 514.617C422.901 515.666 422.249 516.587 421.399 517.38C420.578 518.145 419.586 518.754 418.424 519.207C417.263 519.661 415.988 519.888 414.599 519.888C413.183 519.888 411.936 519.703 410.859 519.335C409.811 518.995 408.904 518.542 408.139 517.975C407.374 517.38 406.737 516.714 406.227 515.977C405.745 515.241 405.363 514.476 405.079 513.682L408.139 512.535C408.338 513.102 408.593 513.654 408.904 514.192C409.244 514.731 409.669 515.212 410.179 515.637C410.689 516.034 411.299 516.36 412.007 516.615C412.744 516.87 413.622 516.997 414.642 516.997C415.322 516.997 416.002 516.912 416.682 516.742C417.362 516.544 417.971 516.232 418.509 515.807C419.076 515.382 419.529 514.816 419.869 514.107C420.209 513.399 420.379 512.535 420.379 511.515C420.379 510.438 420.238 509.546 419.954 508.837C419.699 508.129 419.274 507.506 418.679 506.967C418.113 506.429 417.362 505.947 416.427 505.522C415.492 505.097 414.373 504.616 413.069 504.077C410.774 503.142 409.074 502.009 407.969 500.677C406.893 499.346 406.354 497.702 406.354 495.747C406.354 494.671 406.553 493.665 406.949 492.73C407.346 491.767 407.927 490.945 408.692 490.265C409.457 489.557 410.378 489.004 411.454 488.607C412.559 488.211 413.82 488.012 415.237 488.012C417.645 488.012 419.529 488.508 420.889 489.5C422.249 490.463 423.298 491.781 424.034 493.452L420.889 494.557C420.408 493.367 419.742 492.447 418.892 491.795C418.042 491.143 416.852 490.817 415.322 490.817ZM438.191 490.817C436.604 490.817 435.301 491.2 434.281 491.965C433.261 492.702 432.751 493.877 432.751 495.492C432.751 496.229 432.85 496.881 433.048 497.447C433.246 498.014 433.572 498.524 434.026 498.977C434.507 499.431 435.131 499.87 435.896 500.295C436.661 500.692 437.61 501.102 438.743 501.527C439.848 501.952 440.896 502.42 441.888 502.93C442.88 503.44 443.744 504.063 444.481 504.8C445.246 505.537 445.841 506.429 446.266 507.477C446.719 508.526 446.946 509.801 446.946 511.302C446.946 512.464 446.705 513.569 446.223 514.617C445.77 515.666 445.118 516.587 444.268 517.38C443.446 518.145 442.455 518.754 441.293 519.207C440.131 519.661 438.856 519.888 437.468 519.888C436.051 519.888 434.805 519.703 433.728 519.335C432.68 518.995 431.773 518.542 431.008 517.975C430.243 517.38 429.606 516.714 429.096 515.977C428.614 515.241 428.231 514.476 427.948 513.682L431.008 512.535C431.206 513.102 431.461 513.654 431.773 514.192C432.113 514.731 432.538 515.212 433.048 515.637C433.558 516.034 434.167 516.36 434.876 516.615C435.612 516.87 436.491 516.997 437.511 516.997C438.191 516.997 438.871 516.912 439.551 516.742C440.231 516.544 440.84 516.232 441.378 515.807C441.945 515.382 442.398 514.816 442.738 514.107C443.078 513.399 443.248 512.535 443.248 511.515C443.248 510.438 443.106 509.546 442.823 508.837C442.568 508.129 442.143 507.506 441.548 506.967C440.981 506.429 440.231 505.947 439.296 505.522C438.361 505.097 437.241 504.616 435.938 504.077C433.643 503.142 431.943 502.009 430.838 500.677C429.761 499.346 429.223 497.702 429.223 495.747C429.223 494.671 429.421 493.665 429.818 492.73C430.215 491.767 430.796 490.945 431.561 490.265C432.326 489.557 433.246 489.004 434.323 488.607C435.428 488.211 436.689 488.012 438.106 488.012C440.514 488.012 442.398 488.508 443.758 489.5C445.118 490.463 446.166 491.781 446.903 493.452L443.758 494.557C443.276 493.367 442.611 492.447 441.761 491.795C440.911 491.143 439.721 490.817 438.191 490.817ZM456.842 488.65V519.25H453.229V488.65H456.842ZM472.722 490.817C471.135 490.817 469.832 491.2 468.812 491.965C467.792 492.702 467.282 493.877 467.282 495.492C467.282 496.229 467.381 496.881 467.579 497.447C467.778 498.014 468.104 498.524 468.557 498.977C469.039 499.431 469.662 499.87 470.427 500.295C471.192 500.692 472.141 501.102 473.274 501.527C474.379 501.952 475.428 502.42 476.419 502.93C477.411 503.44 478.275 504.063 479.012 504.8C479.777 505.537 480.372 506.429 480.797 507.477C481.25 508.526 481.477 509.801 481.477 511.302C481.477 512.464 481.236 513.569 480.754 514.617C480.301 515.666 479.649 516.587 478.799 517.38C477.978 518.145 476.986 518.754 475.824 519.207C474.663 519.661 473.388 519.888 471.999 519.888C470.583 519.888 469.336 519.703 468.259 519.335C467.211 518.995 466.304 518.542 465.539 517.975C464.774 517.38 464.137 516.714 463.627 515.977C463.145 515.241 462.763 514.476 462.479 513.682L465.539 512.535C465.738 513.102 465.993 513.654 466.304 514.192C466.644 514.731 467.069 515.212 467.579 515.637C468.089 516.034 468.699 516.36 469.407 516.615C470.144 516.87 471.022 516.997 472.042 516.997C472.722 516.997 473.402 516.912 474.082 516.742C474.762 516.544 475.371 516.232 475.909 515.807C476.476 515.382 476.929 514.816 477.269 514.107C477.609 513.399 477.779 512.535 477.779 511.515C477.779 510.438 477.638 509.546 477.354 508.837C477.099 508.129 476.674 507.506 476.079 506.967C475.513 506.429 474.762 505.947 473.827 505.522C472.892 505.097 471.773 504.616 470.469 504.077C468.174 503.142 466.474 502.009 465.369 500.677C464.293 499.346 463.754 497.702 463.754 495.747C463.754 494.671 463.953 493.665 464.349 492.73C464.746 491.767 465.327 490.945 466.092 490.265C466.857 489.557 467.778 489.004 468.854 488.607C469.959 488.211 471.22 488.012 472.637 488.012C475.045 488.012 476.929 488.508 478.289 489.5C479.649 490.463 480.698 491.781 481.434 493.452L478.289 494.557C477.808 493.367 477.142 492.447 476.292 491.795C475.442 491.143 474.252 490.817 472.722 490.817ZM502.858 491.795H495.378V519.25H491.766V491.795H484.371V488.65H502.858V491.795ZM520.827 519.25L518.575 511.047H507.865L505.57 519.25H502L511.137 488.65H515.557L524.652 519.25H520.827ZM508.672 508.285H517.81L513.305 491.965L508.672 508.285ZM546.783 488.65V519.25H542.108L532.163 493.41V519.25H528.891V488.65H533.693L543.596 514.107V488.65H546.783ZM569.928 491.795H562.448V519.25H558.836V491.795H551.441V488.65H569.928V491.795Z" fill="#224F92"/>
<path d="M189.946 231.29L398.1 231.29C409.596 231.29 418.916 222.661 418.916 212.016V77.0967C418.916 66.4519 409.596 57.8225 398.1 57.8225L189.946 57.8225C178.45 57.8225 169.131 66.4519 169.131 77.0967L169.131 212.016C169.131 222.661 178.45 231.29 189.946 231.29Z" stroke="#19478D" stroke-width="8.5" stroke-linecap="round" stroke-linejoin="round"/>
<path d="M335.654 269.839H252.392" stroke="#19478D" stroke-width="8.5" stroke-linecap="round" stroke-linejoin="round"/>
<path d="M169.87 205.589H418.851" stroke="#19478D" stroke-width="8.5" stroke-linecap="round" stroke-linejoin="round"/>
<path d="M294.023 231.29V269.839" stroke="#19478D" stroke-width="8.5" stroke-linecap="round" stroke-linejoin="round"/>
<path d="M281.006 123.839C281.797 123.686 282.296 122.921 282.076 122.141C280.092 115.122 275.548 108.921 269.177 104.585C262.766 100.221 254.923 98.0315 246.98 98.3617C246.181 98.3949 245.604 99.0818 245.678 99.8725L248.389 128.472C248.472 129.35 249.315 129.98 250.181 129.812L281.006 123.839Z" fill="white" stroke="#18478D" stroke-width="8.5"/>
<path d="M273.656 137.613C274.528 137.498 275.349 138.109 275.441 138.982C276.104 145.248 274.892 151.573 271.922 157.269C268.702 163.444 263.56 168.604 257.146 172.097C250.731 175.589 243.333 177.257 235.886 176.889C228.439 176.522 221.278 174.135 215.309 170.032C209.339 165.928 204.829 160.292 202.349 153.835C199.869 147.379 199.531 140.392 201.376 133.759C203.222 127.126 207.169 121.144 212.718 116.57C217.871 112.323 224.19 109.466 230.977 108.301C231.843 108.152 232.661 108.766 232.797 109.635L237.664 140.752C237.8 141.621 238.617 142.232 239.489 142.117L273.656 137.613Z" fill="white" stroke="#18478D" stroke-width="8.5"/>
<path d="M324.244 178.602V120.024L312.642 126.681L303.941 131.362V178.602H324.244Z" stroke="#18478D" stroke-width="8.5" stroke-linecap="round" stroke-linejoin="round"/>
<path d="M359.051 178.603V106.712L347.449 113.368L338.747 118.693V178.603H359.051Z" stroke="#18478D" stroke-width="8.5" stroke-linecap="round" stroke-linejoin="round"/>
<path d="M390.957 178.602V93.3976L379.355 101.386L370.653 106.711V178.602H390.957Z" stroke="#18478D" stroke-width="8.5" stroke-linecap="round" stroke-linejoin="round"/>
</svg>
