<svg width="212" height="234" viewBox="0 0 212 234" fill="none" xmlns="http://www.w3.org/2000/svg">
<path d="M91.2855 103.107C102.232 103.107 111.107 94.2324 111.107 83.2854C111.107 72.3384 102.232 63.4641 91.2855 63.4641C80.3384 63.4641 71.4641 72.3384 71.4641 83.2854C71.4641 94.2324 80.3384 103.107 91.2855 103.107Z" stroke="#2B5DA7" stroke-width="8" stroke-linecap="round" stroke-linejoin="round"/>
<path d="M64.857 43.6427C75.804 43.6427 84.6783 34.7684 84.6783 23.8214C84.6783 12.8743 75.804 4 64.857 4C53.91 4 45.0356 12.8743 45.0356 23.8214C45.0356 34.7684 53.91 43.6427 64.857 43.6427Z" stroke="#2B5DA7" stroke-width="8" stroke-linecap="round" stroke-linejoin="round"/>
<path d="M150.75 83.2854C161.697 83.2854 170.571 74.4111 170.571 63.4641C170.571 52.517 161.697 43.6427 150.75 43.6427C139.803 43.6427 130.928 52.517 130.928 63.4641C130.928 74.4111 139.803 83.2854 150.75 83.2854Z" stroke="#2B5DA7" stroke-width="8" stroke-linecap="round" stroke-linejoin="round"/>
<path d="M150.75 149.357C161.697 149.357 170.571 140.482 170.571 129.535C170.571 118.588 161.697 109.714 150.75 109.714C139.803 109.714 130.928 118.588 130.928 129.535C130.928 140.482 139.803 149.357 150.75 149.357Z" stroke="#2B5DA7" stroke-width="8" stroke-linecap="round" stroke-linejoin="round"/>
<path d="M31.8214 155.964C42.7684 155.964 51.6427 147.089 51.6427 136.142C51.6427 125.195 42.7684 116.321 31.8214 116.321C20.8743 116.321 12 125.195 12 136.142C12 147.089 20.8743 155.964 31.8214 155.964Z" stroke="#2B5DA7" stroke-width="8" stroke-linecap="round" stroke-linejoin="round"/>
<path d="M83.2744 65.1983L72.8682 41.9083" stroke="#2B5DA7" stroke-width="8" stroke-linecap="round" stroke-linejoin="round"/>
<path d="M131.919 69.7409L110.115 77.0087" stroke="#2B5DA7" stroke-width="8" stroke-linecap="round" stroke-linejoin="round"/>
<path d="M135.14 117.395L106.895 95.4259" stroke="#2B5DA7" stroke-width="8" stroke-linecap="round" stroke-linejoin="round"/>
<path d="M76.5022 96.417L46.605 123.011" stroke="#2B5DA7" stroke-width="8" stroke-linecap="round" stroke-linejoin="round"/>
</svg>
